# xmcd CD database file
#
# Track frame offsets:
#	150
#	18507
#	36610
#	58292
#	84947
#	105870
#	121732
#	146202
#	161257
#	181607
#	204685
#	227080
#	246017
#	273562
#	291672
#	310264
#
# Disc length: 4540 seconds
#
# Revision: 0
# Processed by: cddbd v1.5.1PL0 Copyright (c) Steve Scherf et al.
# Submitted via: CDex 1.51
#
DISCID=e311ba10
DTITLE=布袋寅泰 - SCORPIO RISING ＋３
DYEAR=2002
DGENRE=Rock
TTITLE0=SCORPIO RISING
TTITLE1=RUSSIAN ROULETTE
TTITLE2=VENUS
TTITLE3=MY NAME IS DESIRE
TTITLE4=PSYCHOBILLY and PUSSYCAT
TTITLE5=SHOCK TREATMENT
TTITLE6=BABYLON
TTITLE7=I HATE YOU
TTITLE8=DOUBLE TROUBLE
TTITLE9=MR.LONELY
TTITLE10=LONDON BLUE
TTITLE11=R&R NEVER DIE
TTITLE12=DREAMING IN THE MIDNIGHT CITY
TTITLE13=FROZEN MEMORIES
TTITLE14=DESTINY ROSE
TTITLE15=SCORPIO RISING -SPEEDKING mix
EXTD=YEAR: 2002
EXTT0=
EXTT1=
EXTT2=
EXTT3=
EXTT4=
EXTT5=
EXTT6=
EXTT7=
EXTT8=
EXTT9=
EXTT10=
EXTT11=
EXTT12=
EXTT13=
EXTT14=
EXTT15=
PLAYORDER=
